<svg width="24" height="17" viewBox="0 0 24 17" fill="none" xmlns="http://www.w3.org/2000/svg">
<g clip-path="url(#clip0_389_4)">
<path d="M19.3906 2.16812C19.3906 1.4092 19.3906 1.02975 19.5333 0.739882C19.6589 0.484908 19.8592 0.277609 20.1057 0.147694C20.3858 0 20.7527 0 21.4862 0H21.8968C22.6302 0 22.9971 0 23.2772 0.147694C23.5237 0.277609 23.7241 0.484908 23.8496 0.739882C23.9923 1.02975 23.9923 1.4092 23.9923 2.16812V14.8319C23.9923 15.5908 23.9923 15.9703 23.8496 16.2601C23.7241 16.5151 23.5237 16.7224 23.2772 16.8523C22.9971 17 22.6302 17 21.8968 17H21.4862C20.7527 17 20.3858 17 20.1057 16.8523C19.8592 16.7224 19.6589 16.5151 19.5333 16.2601C19.3906 15.9703 19.3906 15.5908 19.3906 14.8319V2.16812Z" fill="white" style="fill:white;fill-opacity:1;"/>
<path fill-rule="evenodd" clip-rule="evenodd" d="M16.4309 8.5C16.4309 13.1944 12.7527 17 8.21545 17C3.67817 17 0 13.1944 0 8.5C0 3.80557 3.67817 0 8.21545 0C12.7527 0 16.4309 3.80557 16.4309 8.5ZM8.21557 14.1299C11.2208 14.1299 13.657 11.6093 13.657 8.5C13.657 5.39071 11.2208 2.87013 8.21557 2.87013C5.21036 2.87013 2.77417 5.39071 2.77417 8.5C2.77417 11.6093 5.21036 14.1299 8.21557 14.1299Z" fill="white" style="fill:white;fill-opacity:1;"/>
</g>
<defs>
<clipPath id="clip0_389_4">
<rect width="24" height="17" fill="white" style="fill:white;fill-opacity:1;"/>
</clipPath>
</defs>
</svg>
